%TF.GenerationSoftware,KiCad,Pcbnew,8.0.2*%
%TF.CreationDate,2024-06-02T23:09:43-04:00*%
%TF.ProjectId,popperPump,706f7070-6572-4507-956d-702e6b696361,1.5*%
%TF.SameCoordinates,Original*%
%TF.FileFunction,Legend,Bot*%
%TF.FilePolarity,Positive*%
%FSLAX46Y46*%
G04 Gerber Fmt 4.6, Leading zero omitted, Abs format (unit mm)*
G04 Created by KiCad (PCBNEW 8.0.2) date 2024-06-02 23:09:43*
%MOMM*%
%LPD*%
G01*
G04 APERTURE LIST*
%ADD10C,0.300000*%
%ADD11C,0.100000*%
G04 APERTURE END LIST*
D10*
G36*
X161709124Y-127645000D02*
G01*
X161398080Y-127645000D01*
X161398080Y-126097477D01*
X161709124Y-126097477D01*
X161709124Y-127645000D01*
G37*
G36*
X161148220Y-126716266D02*
G01*
X160988485Y-126716266D01*
X160988485Y-127645000D01*
X160681838Y-127645000D01*
X160681838Y-126716266D01*
X160457257Y-126716266D01*
X160457257Y-126472634D01*
X160681838Y-126472634D01*
X160681838Y-126373349D01*
X160674471Y-126299662D01*
X160639678Y-126228880D01*
X160571322Y-126193831D01*
X160539323Y-126191266D01*
X160463565Y-126200561D01*
X160413293Y-126218377D01*
X160356507Y-125987568D01*
X160432955Y-125964310D01*
X160506480Y-125952067D01*
X160581088Y-125948000D01*
X160659113Y-125952917D01*
X160748879Y-125973925D01*
X160823068Y-126009935D01*
X160882473Y-126059294D01*
X160927890Y-126120349D01*
X160960113Y-126191447D01*
X160979935Y-126270936D01*
X160988151Y-126357162D01*
X160988485Y-126379577D01*
X160988485Y-126472634D01*
X161148220Y-126485457D01*
X161148220Y-126716266D01*
G37*
G36*
X159680931Y-128113946D02*
G01*
X159588609Y-128106652D01*
X159507767Y-128085066D01*
X159437074Y-128049630D01*
X159375200Y-128000785D01*
X159320814Y-127938975D01*
X159272584Y-127864641D01*
X159229180Y-127778225D01*
X159198993Y-127705751D01*
X159189270Y-127680170D01*
X158771615Y-126472634D01*
X159067637Y-126472634D01*
X159229204Y-127016685D01*
X159248588Y-127088631D01*
X159267636Y-127161286D01*
X159286119Y-127234100D01*
X159303806Y-127306519D01*
X159313468Y-127347512D01*
X159323726Y-127347512D01*
X159345329Y-127273353D01*
X159366360Y-127199783D01*
X159387510Y-127127284D01*
X159409468Y-127056340D01*
X159422644Y-127016685D01*
X159609490Y-126472634D01*
X159920167Y-126472634D01*
X159462578Y-127621552D01*
X159483461Y-127692627D01*
X159515294Y-127763724D01*
X159568318Y-127825912D01*
X159642060Y-127863039D01*
X159704012Y-127870680D01*
X159777317Y-127858443D01*
X159785711Y-127856025D01*
X159842498Y-128090498D01*
X159770370Y-128107992D01*
X159693649Y-128113851D01*
X159680931Y-128113946D01*
G37*
G36*
X158186160Y-126455117D02*
G01*
X158265928Y-126472672D01*
X158341848Y-126501500D01*
X158412730Y-126541246D01*
X158477384Y-126591558D01*
X158534619Y-126652083D01*
X158583247Y-126722466D01*
X158622075Y-126802356D01*
X158649916Y-126891398D01*
X158665578Y-126989241D01*
X158668667Y-127059183D01*
X158661784Y-127162593D01*
X158641930Y-127257440D01*
X158610295Y-127343373D01*
X158568067Y-127420042D01*
X158516439Y-127487094D01*
X158456598Y-127544178D01*
X158389736Y-127590942D01*
X158317043Y-127627036D01*
X158239708Y-127652108D01*
X158158921Y-127665807D01*
X158103733Y-127668447D01*
X158021898Y-127662526D01*
X157942490Y-127644997D01*
X157866735Y-127616212D01*
X157795862Y-127576522D01*
X157731100Y-127526279D01*
X157673675Y-127465833D01*
X157624816Y-127395537D01*
X157585751Y-127315741D01*
X157557708Y-127226797D01*
X157541916Y-127129057D01*
X157538799Y-127059183D01*
X157853872Y-127059183D01*
X157858072Y-127137028D01*
X157874866Y-127222983D01*
X157904025Y-127294995D01*
X157954641Y-127360997D01*
X158021495Y-127402405D01*
X158103733Y-127416755D01*
X158186923Y-127402405D01*
X158253952Y-127360997D01*
X158304270Y-127294995D01*
X158333037Y-127222983D01*
X158349499Y-127137028D01*
X158353593Y-127059183D01*
X158349499Y-126981848D01*
X158333037Y-126896111D01*
X158304270Y-126823983D01*
X158253952Y-126757602D01*
X158186923Y-126715786D01*
X158103733Y-126701245D01*
X158021495Y-126715786D01*
X157954641Y-126757602D01*
X157904025Y-126823983D01*
X157874866Y-126896111D01*
X157858072Y-126981848D01*
X157853872Y-127059183D01*
X157538799Y-127059183D01*
X157545743Y-126955671D01*
X157565755Y-126860722D01*
X157597609Y-126774692D01*
X157640075Y-126697931D01*
X157691925Y-126630795D01*
X157751933Y-126573635D01*
X157818868Y-126526806D01*
X157891505Y-126490660D01*
X157968614Y-126465551D01*
X158048968Y-126451831D01*
X158103733Y-126449187D01*
X158186160Y-126455117D01*
G37*
G36*
X156929902Y-127668447D02*
G01*
X156844053Y-127660320D01*
X156767227Y-127636975D01*
X156697859Y-127599960D01*
X156634383Y-127550827D01*
X156575235Y-127491126D01*
X156556210Y-127469145D01*
X156547784Y-127469145D01*
X156524703Y-127645000D01*
X156272644Y-127645000D01*
X156272644Y-126472634D01*
X156581489Y-126472634D01*
X156581489Y-127258485D01*
X156631989Y-127317995D01*
X156687675Y-127365694D01*
X156760880Y-127397766D01*
X156818893Y-127403932D01*
X156893798Y-127391372D01*
X156951059Y-127342740D01*
X156979056Y-127262987D01*
X156986534Y-127177287D01*
X156986688Y-127160666D01*
X156986688Y-126472634D01*
X157293335Y-126472634D01*
X157293335Y-127198401D01*
X157290427Y-127277890D01*
X157281584Y-127350888D01*
X157260254Y-127437619D01*
X157227637Y-127511607D01*
X157183313Y-127572166D01*
X157110802Y-127627933D01*
X157038596Y-127655764D01*
X156953314Y-127667932D01*
X156929902Y-127668447D01*
G37*
G36*
X154968021Y-127668447D02*
G01*
X154893803Y-127663740D01*
X154818633Y-127649339D01*
X154744264Y-127624825D01*
X154672451Y-127589776D01*
X154604946Y-127543772D01*
X154583705Y-127525931D01*
X154705704Y-127324064D01*
X154770205Y-127369264D01*
X154841495Y-127401530D01*
X154918635Y-127416301D01*
X154934682Y-127416755D01*
X155010545Y-127406742D01*
X155089868Y-127369673D01*
X155144242Y-127319576D01*
X155186166Y-127253541D01*
X155213962Y-127172992D01*
X155224900Y-127099061D01*
X155226308Y-127059183D01*
X155220729Y-126981848D01*
X155198838Y-126896111D01*
X155161710Y-126823983D01*
X155110780Y-126767032D01*
X155047482Y-126726828D01*
X154973249Y-126704937D01*
X154924057Y-126701245D01*
X154848857Y-126714069D01*
X154778282Y-126750871D01*
X154745638Y-126775251D01*
X154598360Y-126581810D01*
X154658577Y-126534438D01*
X154726581Y-126495612D01*
X154802902Y-126467358D01*
X154875340Y-126453089D01*
X154940910Y-126449187D01*
X155029462Y-126455117D01*
X155114820Y-126472672D01*
X155195779Y-126501500D01*
X155271134Y-126541246D01*
X155339681Y-126591558D01*
X155400216Y-126652083D01*
X155451535Y-126722466D01*
X155492432Y-126802356D01*
X155521703Y-126891398D01*
X155538143Y-126989241D01*
X155541381Y-127059183D01*
X155534938Y-127162593D01*
X155516190Y-127257440D01*
X155486009Y-127343373D01*
X155445264Y-127420042D01*
X155394829Y-127487094D01*
X155335573Y-127544178D01*
X155268368Y-127590942D01*
X155194085Y-127627036D01*
X155113596Y-127652108D01*
X155027771Y-127665807D01*
X154968021Y-127668447D01*
G37*
G36*
X153997204Y-126454195D02*
G01*
X154079774Y-126468328D01*
X154159184Y-126490242D01*
X154235117Y-126518595D01*
X154307252Y-126552048D01*
X154375271Y-126589256D01*
X154401256Y-126604891D01*
X154292079Y-126809323D01*
X154220926Y-126769749D01*
X154150424Y-126736947D01*
X154080067Y-126712849D01*
X153999186Y-126698446D01*
X153968579Y-126697215D01*
X153886478Y-126709103D01*
X153822052Y-126748504D01*
X153781562Y-126819008D01*
X153768911Y-126898715D01*
X153854390Y-126909019D01*
X153933662Y-126921281D01*
X154006822Y-126935550D01*
X154105312Y-126960831D01*
X154190589Y-126990917D01*
X154262974Y-127025980D01*
X154339992Y-127080772D01*
X154395430Y-127145125D01*
X154430051Y-127219449D01*
X154444621Y-127304151D01*
X154445219Y-127326995D01*
X154435475Y-127413585D01*
X154407192Y-127491419D01*
X154361796Y-127558073D01*
X154300713Y-127611124D01*
X154225368Y-127648150D01*
X154137186Y-127666725D01*
X154098639Y-127668447D01*
X154023936Y-127661866D01*
X153941667Y-127638969D01*
X153864548Y-127602025D01*
X153802460Y-127561047D01*
X153743998Y-127513108D01*
X153733374Y-127513108D01*
X153712491Y-127645000D01*
X153460432Y-127645000D01*
X153460432Y-127314173D01*
X153768911Y-127314173D01*
X153829737Y-127367229D01*
X153897687Y-127407384D01*
X153971534Y-127425939D01*
X153995690Y-127427013D01*
X154071902Y-127415244D01*
X154133509Y-127367780D01*
X154151395Y-127297686D01*
X154132127Y-127224534D01*
X154078900Y-127170540D01*
X154001317Y-127132377D01*
X153911140Y-127106708D01*
X153820661Y-127090411D01*
X153768911Y-127083729D01*
X153768911Y-127314173D01*
X153460432Y-127314173D01*
X153460432Y-126965394D01*
X153464463Y-126874693D01*
X153476531Y-126792458D01*
X153496594Y-126718788D01*
X153535714Y-126634056D01*
X153588884Y-126564963D01*
X153656010Y-126511746D01*
X153736997Y-126474641D01*
X153831750Y-126453884D01*
X153911793Y-126449187D01*
X153997204Y-126454195D01*
G37*
G36*
X153145359Y-127645000D02*
G01*
X152836514Y-127645000D01*
X152836514Y-126844860D01*
X152782756Y-126794631D01*
X152717858Y-126747453D01*
X152643087Y-126718823D01*
X152592882Y-126714068D01*
X152518263Y-126726622D01*
X152461717Y-126775205D01*
X152434326Y-126854838D01*
X152427067Y-126940379D01*
X152426919Y-126956967D01*
X152426919Y-127645000D01*
X152118073Y-127645000D01*
X152118073Y-126919598D01*
X152120990Y-126840100D01*
X152129856Y-126767078D01*
X152151228Y-126680296D01*
X152183890Y-126606244D01*
X152228248Y-126545616D01*
X152300767Y-126489771D01*
X152372935Y-126461894D01*
X152458126Y-126449702D01*
X152481507Y-126449187D01*
X152567296Y-126457627D01*
X152645559Y-126481161D01*
X152717196Y-126517108D01*
X152783105Y-126562788D01*
X152844183Y-126615520D01*
X152863625Y-126634200D01*
X152870219Y-126634200D01*
X152893300Y-126472634D01*
X153145359Y-126472634D01*
X153145359Y-127645000D01*
G37*
G36*
X151323796Y-127645000D02*
G01*
X151014951Y-127645000D01*
X151014951Y-126948541D01*
X150980647Y-126878326D01*
X150933260Y-126813065D01*
X150872492Y-126760830D01*
X150800573Y-126729133D01*
X150748237Y-126722494D01*
X150674636Y-126728406D01*
X150622208Y-126741179D01*
X150571650Y-126472634D01*
X150645295Y-126453224D01*
X150708304Y-126449187D01*
X150788439Y-126461122D01*
X150855906Y-126489875D01*
X150920441Y-126535084D01*
X150980334Y-126596141D01*
X151025466Y-126658688D01*
X151042062Y-126686591D01*
X151048656Y-126686591D01*
X151071737Y-126472634D01*
X151323796Y-126472634D01*
X151323796Y-127645000D01*
G37*
G36*
X150037573Y-126455364D02*
G01*
X150113837Y-126473566D01*
X150186976Y-126503298D01*
X150255714Y-126544067D01*
X150318780Y-126595377D01*
X150374900Y-126656734D01*
X150422801Y-126727643D01*
X150461208Y-126807611D01*
X150488850Y-126896142D01*
X150504452Y-126992742D01*
X150507536Y-127061381D01*
X150500934Y-127163806D01*
X150481729Y-127257939D01*
X150450824Y-127343391D01*
X150409120Y-127419773D01*
X150357519Y-127486696D01*
X150296924Y-127543770D01*
X150228236Y-127590605D01*
X150152357Y-127626813D01*
X150070190Y-127652003D01*
X149982636Y-127665787D01*
X149921720Y-127668447D01*
X149839936Y-127663288D01*
X149758794Y-127648354D01*
X149679787Y-127624455D01*
X149604408Y-127592403D01*
X149534149Y-127553010D01*
X149512124Y-127538387D01*
X149617271Y-127352274D01*
X149689254Y-127389146D01*
X149761449Y-127414248D01*
X149836154Y-127427287D01*
X149879588Y-127429211D01*
X149958469Y-127422258D01*
X150028795Y-127401494D01*
X150100276Y-127358548D01*
X150155800Y-127296167D01*
X150188447Y-127229513D01*
X150207484Y-127149675D01*
X149482815Y-127149675D01*
X149470974Y-127074159D01*
X149468161Y-127006793D01*
X149471426Y-126941580D01*
X149732676Y-126941580D01*
X150213712Y-126941580D01*
X150195982Y-126869488D01*
X150160714Y-126798633D01*
X150103740Y-126737885D01*
X150033861Y-126701132D01*
X149955425Y-126688789D01*
X149877866Y-126698900D01*
X149809052Y-126734710D01*
X149762680Y-126793814D01*
X149737805Y-126873523D01*
X149732676Y-126941580D01*
X149471426Y-126941580D01*
X149472575Y-126918623D01*
X149485778Y-126835751D01*
X149507710Y-126758912D01*
X149538312Y-126688844D01*
X149577522Y-126626284D01*
X149643093Y-126555825D01*
X149723721Y-126501772D01*
X149793988Y-126473049D01*
X149872586Y-126455275D01*
X149959455Y-126449187D01*
X150037573Y-126455364D01*
G37*
G36*
X148854915Y-126454195D02*
G01*
X148937485Y-126468328D01*
X149016896Y-126490242D01*
X149092828Y-126518595D01*
X149164963Y-126552048D01*
X149232983Y-126589256D01*
X149258967Y-126604891D01*
X149149790Y-126809323D01*
X149078637Y-126769749D01*
X149008135Y-126736947D01*
X148937778Y-126712849D01*
X148856897Y-126698446D01*
X148826290Y-126697215D01*
X148744189Y-126709103D01*
X148679763Y-126748504D01*
X148639273Y-126819008D01*
X148626622Y-126898715D01*
X148712101Y-126909019D01*
X148791373Y-126921281D01*
X148864533Y-126935550D01*
X148963023Y-126960831D01*
X149048300Y-126990917D01*
X149120685Y-127025980D01*
X149197703Y-127080772D01*
X149253141Y-127145125D01*
X149287762Y-127219449D01*
X149302332Y-127304151D01*
X149302930Y-127326995D01*
X149293186Y-127413585D01*
X149264903Y-127491419D01*
X149219507Y-127558073D01*
X149158424Y-127611124D01*
X149083079Y-127648150D01*
X148994897Y-127666725D01*
X148956350Y-127668447D01*
X148881647Y-127661866D01*
X148799378Y-127638969D01*
X148722260Y-127602025D01*
X148660171Y-127561047D01*
X148601709Y-127513108D01*
X148591085Y-127513108D01*
X148570202Y-127645000D01*
X148318143Y-127645000D01*
X148318143Y-127314173D01*
X148626622Y-127314173D01*
X148687448Y-127367229D01*
X148755398Y-127407384D01*
X148829245Y-127425939D01*
X148853401Y-127427013D01*
X148929613Y-127415244D01*
X148991220Y-127367780D01*
X149009106Y-127297686D01*
X148989838Y-127224534D01*
X148936611Y-127170540D01*
X148859028Y-127132377D01*
X148768851Y-127106708D01*
X148678372Y-127090411D01*
X148626622Y-127083729D01*
X148626622Y-127314173D01*
X148318143Y-127314173D01*
X148318143Y-126965394D01*
X148322174Y-126874693D01*
X148334242Y-126792458D01*
X148354305Y-126718788D01*
X148393425Y-126634056D01*
X148446596Y-126564963D01*
X148513721Y-126511746D01*
X148594708Y-126474641D01*
X148689462Y-126453884D01*
X148769504Y-126449187D01*
X148854915Y-126454195D01*
G37*
G36*
X147289026Y-126392766D02*
G01*
X147278401Y-126577414D01*
X147341794Y-126524612D01*
X147409377Y-126484174D01*
X147486027Y-126458300D01*
X147564368Y-126449334D01*
X147576622Y-126449187D01*
X147670195Y-126460048D01*
X147760067Y-126491908D01*
X147823416Y-126528930D01*
X147882020Y-126576695D01*
X147934739Y-126634743D01*
X147980431Y-126702618D01*
X148017956Y-126779861D01*
X148046172Y-126866013D01*
X148063939Y-126960617D01*
X148070115Y-127063213D01*
X148065254Y-127164661D01*
X148050932Y-127258105D01*
X148027544Y-127343113D01*
X147995482Y-127419255D01*
X147955138Y-127486098D01*
X147906907Y-127543213D01*
X147831007Y-127603488D01*
X147742715Y-127644678D01*
X147668924Y-127662433D01*
X147589078Y-127668447D01*
X147510123Y-127659594D01*
X147434050Y-127634862D01*
X147362586Y-127596987D01*
X147297456Y-127548709D01*
X147263747Y-127517505D01*
X147255321Y-127517505D01*
X147232240Y-127645000D01*
X146980181Y-127645000D01*
X146980181Y-126789905D01*
X147289026Y-126789905D01*
X147289026Y-127295488D01*
X147340231Y-127350414D01*
X147407445Y-127393935D01*
X147479289Y-127412971D01*
X147509577Y-127414556D01*
X147589710Y-127401981D01*
X147654812Y-127364189D01*
X147704072Y-127301078D01*
X147732434Y-127229071D01*
X147748762Y-127139353D01*
X147752843Y-127054787D01*
X147747815Y-126974264D01*
X147728497Y-126887716D01*
X147696617Y-126817248D01*
X147644669Y-126754525D01*
X147581139Y-126716339D01*
X147509577Y-126703443D01*
X147432249Y-126712240D01*
X147363379Y-126737968D01*
X147295729Y-126784049D01*
X147289026Y-126789905D01*
X146980181Y-126789905D01*
X146980181Y-125978775D01*
X147289026Y-125978775D01*
X147289026Y-126392766D01*
G37*
G36*
X145744801Y-127668447D02*
G01*
X145663034Y-127663220D01*
X145590516Y-127650276D01*
X145513729Y-127629970D01*
X145494940Y-127624483D01*
X145547697Y-127400268D01*
X145618311Y-127420583D01*
X145663101Y-127425181D01*
X145740085Y-127410222D01*
X145797249Y-127357623D01*
X145820565Y-127287321D01*
X145824668Y-127230275D01*
X145824668Y-126716266D01*
X145533042Y-126716266D01*
X145533042Y-126472634D01*
X145824668Y-126472634D01*
X145824668Y-126155729D01*
X146078925Y-126155729D01*
X146114462Y-126472634D01*
X146297278Y-126487655D01*
X146297278Y-126716266D01*
X146131315Y-126716266D01*
X146131315Y-127232473D01*
X146126172Y-127325153D01*
X146110232Y-127409250D01*
X146082725Y-127483601D01*
X146042884Y-127547043D01*
X145989939Y-127598412D01*
X145923123Y-127636544D01*
X145841666Y-127660277D01*
X145744801Y-127668447D01*
G37*
G36*
X145291974Y-127645000D02*
G01*
X144983129Y-127645000D01*
X144983129Y-126844860D01*
X144929371Y-126794631D01*
X144864473Y-126747453D01*
X144789702Y-126718823D01*
X144739497Y-126714068D01*
X144664879Y-126726622D01*
X144608333Y-126775205D01*
X144580941Y-126854838D01*
X144573683Y-126940379D01*
X144573534Y-126956967D01*
X144573534Y-127645000D01*
X144264689Y-127645000D01*
X144264689Y-126919598D01*
X144267606Y-126840100D01*
X144276472Y-126767078D01*
X144297844Y-126680296D01*
X144330505Y-126606244D01*
X144374864Y-126545616D01*
X144447382Y-126489771D01*
X144519551Y-126461894D01*
X144604742Y-126449702D01*
X144628122Y-126449187D01*
X144713641Y-126457545D01*
X144790938Y-126480504D01*
X144860682Y-126514891D01*
X144923538Y-126557533D01*
X144980173Y-126605256D01*
X144997784Y-126621744D01*
X144983129Y-126401193D01*
X144983129Y-125978775D01*
X145291974Y-125978775D01*
X145291974Y-127645000D01*
G37*
G36*
X143948150Y-127645000D02*
G01*
X143639305Y-127645000D01*
X143639305Y-126472634D01*
X143948150Y-126472634D01*
X143948150Y-127645000D01*
G37*
G36*
X143792445Y-126285055D02*
G01*
X143712373Y-126270262D01*
X143647637Y-126222071D01*
X143617395Y-126154028D01*
X143614026Y-126117260D01*
X143630555Y-126040922D01*
X143683012Y-125980191D01*
X143754696Y-125952193D01*
X143792445Y-125949099D01*
X143866594Y-125961206D01*
X143928569Y-126001066D01*
X143966270Y-126072606D01*
X143971231Y-126117260D01*
X143955443Y-126194486D01*
X143904057Y-126254742D01*
X143831578Y-126282068D01*
X143792445Y-126285055D01*
G37*
G36*
X142974354Y-127668447D02*
G01*
X142892456Y-127664230D01*
X142818092Y-127651984D01*
X142730854Y-127624214D01*
X142657481Y-127584688D01*
X142598244Y-127534842D01*
X142553414Y-127476115D01*
X142518047Y-127392410D01*
X142506620Y-127318960D01*
X142506140Y-127299884D01*
X142513843Y-127226401D01*
X142542797Y-127150197D01*
X142589185Y-127088956D01*
X142648682Y-127040079D01*
X142716960Y-127000965D01*
X142789693Y-126969016D01*
X142833670Y-126952205D01*
X142912767Y-126923778D01*
X142980930Y-126895257D01*
X143043543Y-126851521D01*
X143067044Y-126791371D01*
X143037522Y-126718985D01*
X142971674Y-126686619D01*
X142909508Y-126680362D01*
X142829795Y-126691646D01*
X142759185Y-126718698D01*
X142688836Y-126758411D01*
X142657449Y-126779281D01*
X142518963Y-126594267D01*
X142587373Y-126546248D01*
X142654318Y-126509463D01*
X142729026Y-126479377D01*
X142811582Y-126458512D01*
X142886437Y-126449987D01*
X142917934Y-126449187D01*
X143013895Y-126456014D01*
X143099805Y-126475782D01*
X143174819Y-126507417D01*
X143238090Y-126549845D01*
X143299379Y-126616423D01*
X143339346Y-126696093D01*
X143354860Y-126767846D01*
X143356838Y-126806025D01*
X143345380Y-126889276D01*
X143313795Y-126958785D01*
X143266268Y-127016212D01*
X143206983Y-127063217D01*
X143140124Y-127101462D01*
X143069876Y-127132606D01*
X143041765Y-127143447D01*
X142973095Y-127169546D01*
X142899810Y-127200765D01*
X142834301Y-127241713D01*
X142796288Y-127308402D01*
X142795935Y-127316371D01*
X142818829Y-127386296D01*
X142882186Y-127426504D01*
X142955458Y-127437493D01*
X142966294Y-127437637D01*
X143047564Y-127429028D01*
X143125983Y-127404207D01*
X143193584Y-127370378D01*
X143261419Y-127326306D01*
X143281001Y-127311974D01*
X143421685Y-127504682D01*
X143350232Y-127555711D01*
X143283868Y-127592387D01*
X143212995Y-127622834D01*
X143139196Y-127646198D01*
X143064058Y-127661622D01*
X142989164Y-127668252D01*
X142974354Y-127668447D01*
G37*
G36*
X142261043Y-128090498D02*
G01*
X142192505Y-128063869D01*
X142110550Y-128020461D01*
X142039702Y-127968479D01*
X141980321Y-127908422D01*
X141932769Y-127840786D01*
X141897405Y-127766072D01*
X141874591Y-127684775D01*
X141864687Y-127597395D01*
X141864270Y-127574658D01*
X141870023Y-127490838D01*
X141887003Y-127419218D01*
X141921606Y-127350534D01*
X141980680Y-127295995D01*
X142058798Y-127271165D01*
X142084455Y-127269842D01*
X142162983Y-127282745D01*
X142227154Y-127319485D01*
X142274060Y-127385631D01*
X142286322Y-127452658D01*
X142270316Y-127530837D01*
X142220677Y-127593808D01*
X142148282Y-127628681D01*
X142092882Y-127635474D01*
X142071999Y-127633276D01*
X142085895Y-127710402D01*
X142124024Y-127781420D01*
X142175225Y-127836071D01*
X142242848Y-127883787D01*
X142311285Y-127917436D01*
X142326256Y-127923436D01*
X142261043Y-128090498D01*
G37*
G36*
X140042707Y-127668447D02*
G01*
X139969388Y-127663752D01*
X139895091Y-127645664D01*
X139885170Y-127641702D01*
X139922906Y-127412358D01*
X139965038Y-127416755D01*
X140020473Y-127367605D01*
X140025854Y-127323332D01*
X140025854Y-125977309D01*
X140334699Y-125977309D01*
X140334699Y-127310875D01*
X140331034Y-127388931D01*
X140315331Y-127474995D01*
X140285871Y-127546992D01*
X140230246Y-127612883D01*
X140165237Y-127649090D01*
X140081668Y-127666830D01*
X140042707Y-127668447D01*
G37*
G36*
X141220935Y-126716266D02*
G01*
X141061200Y-126716266D01*
X141061200Y-127645000D01*
X140754553Y-127645000D01*
X140754553Y-126716266D01*
X140529972Y-126716266D01*
X140529972Y-126472634D01*
X140754553Y-126472634D01*
X140754553Y-126373349D01*
X140747185Y-126299662D01*
X140712392Y-126228880D01*
X140644037Y-126193831D01*
X140612037Y-126191266D01*
X140536279Y-126200561D01*
X140486008Y-126218377D01*
X140429221Y-125987568D01*
X140505669Y-125964310D01*
X140579195Y-125952067D01*
X140653803Y-125948000D01*
X140731828Y-125952917D01*
X140821594Y-125973925D01*
X140895782Y-126009935D01*
X140955188Y-126059294D01*
X141000605Y-126120349D01*
X141032827Y-126191447D01*
X141052650Y-126270936D01*
X141060866Y-126357162D01*
X141061200Y-126379577D01*
X141061200Y-126472634D01*
X141220935Y-126485457D01*
X141220935Y-126716266D01*
G37*
G36*
X139671946Y-127645000D02*
G01*
X139363101Y-127645000D01*
X139363101Y-126472634D01*
X139671946Y-126472634D01*
X139671946Y-127645000D01*
G37*
G36*
X139516242Y-126285055D02*
G01*
X139436169Y-126270262D01*
X139371433Y-126222071D01*
X139341191Y-126154028D01*
X139337822Y-126117260D01*
X139354352Y-126040922D01*
X139406809Y-125980191D01*
X139478492Y-125952193D01*
X139516242Y-125949099D01*
X139590390Y-125961206D01*
X139652365Y-126001066D01*
X139690066Y-126072606D01*
X139695027Y-126117260D01*
X139679240Y-126194486D01*
X139627853Y-126254742D01*
X139555375Y-126282068D01*
X139516242Y-126285055D01*
G37*
G36*
X138489138Y-126458331D02*
G01*
X138568609Y-126483631D01*
X138644110Y-126521889D01*
X138714811Y-126569906D01*
X138752739Y-126600495D01*
X138759333Y-126600495D01*
X138782414Y-126472634D01*
X139034473Y-126472634D01*
X139034473Y-128090498D01*
X138725628Y-128090498D01*
X138725628Y-127731461D01*
X138736252Y-127540586D01*
X138676629Y-127588988D01*
X138604935Y-127630955D01*
X138530373Y-127657729D01*
X138453904Y-127668312D01*
X138444260Y-127668447D01*
X138348631Y-127657663D01*
X138257214Y-127625868D01*
X138192998Y-127588734D01*
X138133742Y-127540601D01*
X138080556Y-127481820D01*
X138034551Y-127412743D01*
X137996836Y-127333721D01*
X137968522Y-127245105D01*
X137950720Y-127147247D01*
X137944772Y-127044528D01*
X138261444Y-127044528D01*
X138266500Y-127132060D01*
X138281010Y-127207601D01*
X138310938Y-127285314D01*
X138361598Y-127354313D01*
X138425197Y-127397165D01*
X138498403Y-127414203D01*
X138511304Y-127414556D01*
X138587876Y-127403872D01*
X138662530Y-127372120D01*
X138725628Y-127327362D01*
X138725628Y-126820680D01*
X138667044Y-126769440D01*
X138602947Y-126729246D01*
X138531337Y-126706313D01*
X138494452Y-126703443D01*
X138412953Y-126716083D01*
X138349726Y-126753405D01*
X138304031Y-126814509D01*
X138275131Y-126898498D01*
X138263343Y-126985322D01*
X138261444Y-127044528D01*
X137944772Y-127044528D01*
X137944539Y-127040498D01*
X137949078Y-126944133D01*
X137962497Y-126854510D01*
X137984499Y-126772225D01*
X138014786Y-126697878D01*
X138053063Y-126632065D01*
X138116012Y-126558623D01*
X138191931Y-126502834D01*
X138280116Y-126466113D01*
X138353881Y-126451939D01*
X138406524Y-126449187D01*
X138489138Y-126458331D01*
G37*
G36*
X137207048Y-127645000D02*
G01*
X136898203Y-127645000D01*
X136898203Y-126844860D01*
X136845313Y-126793017D01*
X136780279Y-126745942D01*
X136712211Y-126718478D01*
X136673621Y-126714068D01*
X136599776Y-126726622D01*
X136543098Y-126775205D01*
X136515271Y-126854838D01*
X136507812Y-126940379D01*
X136507658Y-126956967D01*
X136507658Y-127645000D01*
X136201011Y-127645000D01*
X136201011Y-126844860D01*
X136147118Y-126793017D01*
X136081302Y-126745942D01*
X136012867Y-126718478D01*
X135974232Y-126714068D01*
X135901657Y-126726622D01*
X135845681Y-126775205D01*
X135818057Y-126854838D01*
X135810621Y-126940379D01*
X135810467Y-126956967D01*
X135810467Y-127645000D01*
X135503820Y-127645000D01*
X135503820Y-126919598D01*
X135506824Y-126840100D01*
X135515914Y-126767078D01*
X135537702Y-126680296D01*
X135570789Y-126606244D01*
X135615451Y-126545616D01*
X135687974Y-126489771D01*
X135759684Y-126461894D01*
X135843862Y-126449702D01*
X135866887Y-126449187D01*
X135948407Y-126458487D01*
X136023527Y-126484484D01*
X136093421Y-126524324D01*
X136159263Y-126575153D01*
X136222226Y-126634115D01*
X136242777Y-126655083D01*
X136278322Y-126587786D01*
X136332925Y-126524869D01*
X136403161Y-126480041D01*
X136476993Y-126457043D01*
X136564445Y-126449187D01*
X136646169Y-126457641D01*
X136719938Y-126481277D01*
X136787071Y-126517500D01*
X136848887Y-126563715D01*
X136906702Y-126617331D01*
X136925314Y-126636399D01*
X136931908Y-126636399D01*
X136954989Y-126472634D01*
X137207048Y-126472634D01*
X137207048Y-127645000D01*
G37*
G36*
X134786561Y-126455364D02*
G01*
X134862825Y-126473566D01*
X134935964Y-126503298D01*
X135004703Y-126544067D01*
X135067768Y-126595377D01*
X135123888Y-126656734D01*
X135171789Y-126727643D01*
X135210196Y-126807611D01*
X135237838Y-126896142D01*
X135253440Y-126992742D01*
X135256524Y-127061381D01*
X135249922Y-127163806D01*
X135230718Y-127257939D01*
X135199812Y-127343391D01*
X135158108Y-127419773D01*
X135106508Y-127486696D01*
X135045912Y-127543770D01*
X134977224Y-127590605D01*
X134901346Y-127626813D01*
X134819178Y-127652003D01*
X134731624Y-127665787D01*
X134670708Y-127668447D01*
X134588924Y-127663288D01*
X134507782Y-127648354D01*
X134428776Y-127624455D01*
X134353396Y-127592403D01*
X134283137Y-127553010D01*
X134261113Y-127538387D01*
X134366259Y-127352274D01*
X134438242Y-127389146D01*
X134510437Y-127414248D01*
X134585142Y-127427287D01*
X134628576Y-127429211D01*
X134707457Y-127422258D01*
X134777783Y-127401494D01*
X134849265Y-127358548D01*
X134904788Y-127296167D01*
X134937435Y-127229513D01*
X134956472Y-127149675D01*
X134231803Y-127149675D01*
X134219962Y-127074159D01*
X134217149Y-127006793D01*
X134220414Y-126941580D01*
X134481664Y-126941580D01*
X134962700Y-126941580D01*
X134944970Y-126869488D01*
X134909703Y-126798633D01*
X134852728Y-126737885D01*
X134782849Y-126701132D01*
X134704413Y-126688789D01*
X134626854Y-126698900D01*
X134558040Y-126734710D01*
X134511668Y-126793814D01*
X134486793Y-126873523D01*
X134481664Y-126941580D01*
X134220414Y-126941580D01*
X134221563Y-126918623D01*
X134234766Y-126835751D01*
X134256698Y-126758912D01*
X134287300Y-126688844D01*
X134326511Y-126626284D01*
X134392081Y-126555825D01*
X134472709Y-126501772D01*
X134542976Y-126473049D01*
X134621575Y-126455275D01*
X134708443Y-126449187D01*
X134786561Y-126455364D01*
G37*
G36*
X133078484Y-126455117D02*
G01*
X133158252Y-126472672D01*
X133234172Y-126501500D01*
X133305054Y-126541246D01*
X133369708Y-126591558D01*
X133426943Y-126652083D01*
X133475570Y-126722466D01*
X133514399Y-126802356D01*
X133542240Y-126891398D01*
X133557902Y-126989241D01*
X133560990Y-127059183D01*
X133554108Y-127162593D01*
X133534254Y-127257440D01*
X133502618Y-127343373D01*
X133460391Y-127420042D01*
X133408762Y-127487094D01*
X133348922Y-127544178D01*
X133282060Y-127590942D01*
X133209367Y-127627036D01*
X133132031Y-127652108D01*
X133051245Y-127665807D01*
X132996057Y-127668447D01*
X132914222Y-127662526D01*
X132834814Y-127644997D01*
X132759059Y-127616212D01*
X132688186Y-127576522D01*
X132623423Y-127526279D01*
X132565999Y-127465833D01*
X132517140Y-127395537D01*
X132478075Y-127315741D01*
X132450032Y-127226797D01*
X132434239Y-127129057D01*
X132431123Y-127059183D01*
X132746196Y-127059183D01*
X132750396Y-127137028D01*
X132767190Y-127222983D01*
X132796348Y-127294995D01*
X132846964Y-127360997D01*
X132913819Y-127402405D01*
X132996057Y-127416755D01*
X133079247Y-127402405D01*
X133146276Y-127360997D01*
X133196593Y-127294995D01*
X133225361Y-127222983D01*
X133241823Y-127137028D01*
X133245917Y-127059183D01*
X133241823Y-126981848D01*
X133225361Y-126896111D01*
X133196593Y-126823983D01*
X133146276Y-126757602D01*
X133079247Y-126715786D01*
X132996057Y-126701245D01*
X132913819Y-126715786D01*
X132846964Y-126757602D01*
X132796348Y-126823983D01*
X132767190Y-126896111D01*
X132750396Y-126981848D01*
X132746196Y-127059183D01*
X132431123Y-127059183D01*
X132438067Y-126955671D01*
X132458079Y-126860722D01*
X132489932Y-126774692D01*
X132532398Y-126697931D01*
X132584249Y-126630795D01*
X132644256Y-126573635D01*
X132711192Y-126526806D01*
X132783829Y-126490660D01*
X132860938Y-126465551D01*
X132941292Y-126451831D01*
X132996057Y-126449187D01*
X133078484Y-126455117D01*
G37*
G36*
X131925907Y-127645000D02*
G01*
X131569068Y-127645000D01*
X131176325Y-126472634D01*
X131472348Y-126472634D01*
X131644539Y-127056618D01*
X131665216Y-127132918D01*
X131685892Y-127210477D01*
X131706569Y-127288766D01*
X131727246Y-127367255D01*
X131739061Y-127411992D01*
X131749685Y-127411992D01*
X131771266Y-127333626D01*
X131792136Y-127255158D01*
X131812848Y-127177117D01*
X131833955Y-127100033D01*
X131846406Y-127056618D01*
X132016399Y-126472634D01*
X132327076Y-126472634D01*
X131925907Y-127645000D01*
G37*
G36*
X130601215Y-126455364D02*
G01*
X130677480Y-126473566D01*
X130750618Y-126503298D01*
X130819357Y-126544067D01*
X130882423Y-126595377D01*
X130938543Y-126656734D01*
X130986443Y-126727643D01*
X131024851Y-126807611D01*
X131052493Y-126896142D01*
X131068095Y-126992742D01*
X131071179Y-127061381D01*
X131064577Y-127163806D01*
X131045372Y-127257939D01*
X131014467Y-127343391D01*
X130972763Y-127419773D01*
X130921162Y-127486696D01*
X130860567Y-127543770D01*
X130791879Y-127590605D01*
X130716000Y-127626813D01*
X130633833Y-127652003D01*
X130546279Y-127665787D01*
X130485362Y-127668447D01*
X130403578Y-127663288D01*
X130322437Y-127648354D01*
X130243430Y-127624455D01*
X130168051Y-127592403D01*
X130097791Y-127553010D01*
X130075767Y-127538387D01*
X130180914Y-127352274D01*
X130252897Y-127389146D01*
X130325092Y-127414248D01*
X130399797Y-127427287D01*
X130443230Y-127429211D01*
X130522111Y-127422258D01*
X130592438Y-127401494D01*
X130663919Y-127358548D01*
X130719442Y-127296167D01*
X130752089Y-127229513D01*
X130771127Y-127149675D01*
X130046458Y-127149675D01*
X130034617Y-127074159D01*
X130031803Y-127006793D01*
X130035068Y-126941580D01*
X130296318Y-126941580D01*
X130777355Y-126941580D01*
X130759624Y-126869488D01*
X130724357Y-126798633D01*
X130667383Y-126737885D01*
X130597504Y-126701132D01*
X130519068Y-126688789D01*
X130441509Y-126698900D01*
X130372695Y-126734710D01*
X130326322Y-126793814D01*
X130301447Y-126873523D01*
X130296318Y-126941580D01*
X130035068Y-126941580D01*
X130036218Y-126918623D01*
X130049421Y-126835751D01*
X130071353Y-126758912D01*
X130101954Y-126688844D01*
X130141165Y-126626284D01*
X130206735Y-126555825D01*
X130287364Y-126501772D01*
X130357631Y-126473049D01*
X130436229Y-126455275D01*
X130523098Y-126449187D01*
X130601215Y-126455364D01*
G37*
G36*
X129778646Y-127645000D02*
G01*
X129469801Y-127645000D01*
X129469801Y-126948541D01*
X129435497Y-126878326D01*
X129388110Y-126813065D01*
X129327342Y-126760830D01*
X129255423Y-126729133D01*
X129203087Y-126722494D01*
X129129486Y-126728406D01*
X129077058Y-126741179D01*
X129026500Y-126472634D01*
X129100145Y-126453224D01*
X129163154Y-126449187D01*
X129243289Y-126461122D01*
X129310756Y-126489875D01*
X129375291Y-126535084D01*
X129435184Y-126596141D01*
X129480316Y-126658688D01*
X129496912Y-126686591D01*
X129503506Y-126686591D01*
X129526587Y-126472634D01*
X129778646Y-126472634D01*
X129778646Y-127645000D01*
G37*
G36*
X128060031Y-128067051D02*
G01*
X127869155Y-127985352D01*
X127916190Y-127897935D01*
X127958226Y-127808354D01*
X127995343Y-127716879D01*
X128027624Y-127623778D01*
X128055150Y-127529323D01*
X128078002Y-127433783D01*
X128096262Y-127337428D01*
X128110011Y-127240528D01*
X128119331Y-127143352D01*
X128124304Y-127046171D01*
X128125244Y-126981514D01*
X128123124Y-126884425D01*
X128116712Y-126787067D01*
X128105924Y-126689732D01*
X128090680Y-126592712D01*
X128070899Y-126496298D01*
X128046498Y-126400781D01*
X128017396Y-126306455D01*
X127983512Y-126213609D01*
X127944765Y-126122535D01*
X127901071Y-126033526D01*
X127869155Y-125975478D01*
X128060031Y-125893412D01*
X128113940Y-125985500D01*
X128163252Y-126078761D01*
X128207812Y-126173501D01*
X128247467Y-126270023D01*
X128282062Y-126368631D01*
X128311444Y-126469631D01*
X128335459Y-126573325D01*
X128353952Y-126680019D01*
X128363138Y-126752965D01*
X128369755Y-126827469D01*
X128373759Y-126903622D01*
X128375104Y-126981514D01*
X128373759Y-127059345D01*
X128369755Y-127135448D01*
X128363138Y-127209910D01*
X128353952Y-127282814D01*
X128335459Y-127389436D01*
X128311444Y-127493030D01*
X128282062Y-127593883D01*
X128247467Y-127692282D01*
X128207812Y-127788512D01*
X128163252Y-127882859D01*
X128113940Y-127975610D01*
X128060031Y-128067051D01*
G37*
G36*
X127760711Y-126885160D02*
G01*
X127649133Y-126879461D01*
X127540768Y-126862733D01*
X127436164Y-126835532D01*
X127335872Y-126798412D01*
X127240442Y-126751928D01*
X127150425Y-126696636D01*
X127066370Y-126633089D01*
X126988828Y-126561844D01*
X126918348Y-126483454D01*
X126855480Y-126398475D01*
X126800776Y-126307462D01*
X126754784Y-126210970D01*
X126718055Y-126109553D01*
X126691139Y-126003766D01*
X126674586Y-125894165D01*
X126668946Y-125781304D01*
X126752843Y-125781304D01*
X126758048Y-125885551D01*
X126773325Y-125986787D01*
X126798165Y-126084499D01*
X126832064Y-126178174D01*
X126874512Y-126267301D01*
X126925004Y-126351367D01*
X126983031Y-126429858D01*
X127048087Y-126502264D01*
X127119665Y-126568070D01*
X127197257Y-126626765D01*
X127280356Y-126677836D01*
X127368455Y-126720771D01*
X127461048Y-126755057D01*
X127557626Y-126780182D01*
X127657683Y-126795632D01*
X127760711Y-126800896D01*
X127760711Y-126885160D01*
G37*
G36*
X125318147Y-126024493D02*
G01*
X125393859Y-126052623D01*
X125459167Y-126097098D01*
X125511471Y-126155947D01*
X125548171Y-126227200D01*
X125566668Y-126308886D01*
X125568387Y-126344040D01*
X125557900Y-126429057D01*
X125528169Y-126504253D01*
X125481795Y-126567749D01*
X125421377Y-126617668D01*
X125349514Y-126652131D01*
X125268807Y-126669260D01*
X125234630Y-126670837D01*
X125152721Y-126661168D01*
X125078120Y-126633413D01*
X125013518Y-126589451D01*
X124961606Y-126531161D01*
X124925076Y-126460419D01*
X124906620Y-126379105D01*
X124904902Y-126344040D01*
X125070865Y-126344040D01*
X125085943Y-126423228D01*
X125133950Y-126486761D01*
X125208240Y-126517677D01*
X125234630Y-126519528D01*
X125309586Y-126503439D01*
X125369648Y-126452100D01*
X125397504Y-126381453D01*
X125400593Y-126344040D01*
X125385403Y-126264551D01*
X125336890Y-126200744D01*
X125261496Y-126169680D01*
X125234630Y-126167819D01*
X125160896Y-126183987D01*
X125101554Y-126235558D01*
X125073935Y-126306490D01*
X125070865Y-126344040D01*
X124904902Y-126344040D01*
X124915374Y-126258733D01*
X124944997Y-126183070D01*
X124991080Y-126119023D01*
X125050929Y-126068562D01*
X125121853Y-126033658D01*
X125201162Y-126016280D01*
X125234630Y-126014678D01*
X125318147Y-126024493D01*
G37*
G36*
X124602285Y-127691894D02*
G01*
X122922138Y-127691894D01*
X122922138Y-127599570D01*
X123014829Y-127599570D01*
X124509961Y-127599570D01*
X124509961Y-126096378D01*
X123014829Y-126096378D01*
X123014829Y-127599570D01*
X122922138Y-127599570D01*
X122922138Y-126003688D01*
X124602285Y-126003688D01*
X124602285Y-127691894D01*
G37*
G36*
X122369647Y-126024493D02*
G01*
X122445360Y-126052623D01*
X122510668Y-126097098D01*
X122562971Y-126155947D01*
X122599671Y-126227200D01*
X122618168Y-126308886D01*
X122619888Y-126344040D01*
X122609400Y-126429057D01*
X122579669Y-126504253D01*
X122533295Y-126567749D01*
X122472877Y-126617668D01*
X122401015Y-126652131D01*
X122320307Y-126669260D01*
X122286130Y-126670837D01*
X122204222Y-126661168D01*
X122129621Y-126633413D01*
X122065018Y-126589451D01*
X122013106Y-126531161D01*
X121976577Y-126460419D01*
X121958121Y-126379105D01*
X121956402Y-126344040D01*
X122122365Y-126344040D01*
X122137444Y-126423228D01*
X122185451Y-126486761D01*
X122259741Y-126517677D01*
X122286130Y-126519528D01*
X122361086Y-126503439D01*
X122421148Y-126452100D01*
X122449004Y-126381453D01*
X122452093Y-126344040D01*
X122436903Y-126264551D01*
X122388390Y-126200744D01*
X122312997Y-126169680D01*
X122286130Y-126167819D01*
X122212396Y-126183987D01*
X122153055Y-126235558D01*
X122125435Y-126306490D01*
X122122365Y-126344040D01*
X121956402Y-126344040D01*
X121966875Y-126258733D01*
X121996498Y-126183070D01*
X122042580Y-126119023D01*
X122102429Y-126068562D01*
X122173354Y-126033658D01*
X122252662Y-126016280D01*
X122286130Y-126014678D01*
X122369647Y-126024493D01*
G37*
G36*
X121563660Y-128067051D02*
G01*
X121509750Y-127975610D01*
X121460439Y-127882859D01*
X121415878Y-127788512D01*
X121376224Y-127692282D01*
X121341628Y-127593883D01*
X121312246Y-127493030D01*
X121288232Y-127389436D01*
X121269738Y-127282814D01*
X121260553Y-127209910D01*
X121253935Y-127135448D01*
X121249931Y-127059345D01*
X121248586Y-126981514D01*
X121249931Y-126903622D01*
X121253935Y-126827469D01*
X121260553Y-126752965D01*
X121269738Y-126680019D01*
X121288232Y-126573325D01*
X121312246Y-126469631D01*
X121341628Y-126368631D01*
X121376224Y-126270023D01*
X121415878Y-126173501D01*
X121460439Y-126078761D01*
X121509750Y-125985500D01*
X121563660Y-125893412D01*
X121754535Y-125975478D01*
X121707500Y-126062948D01*
X121665465Y-126152678D01*
X121628347Y-126244375D01*
X121596066Y-126337747D01*
X121568541Y-126432502D01*
X121545689Y-126528350D01*
X121527429Y-126624999D01*
X121513680Y-126722157D01*
X121504359Y-126819531D01*
X121499387Y-126916832D01*
X121498447Y-126981514D01*
X121500566Y-127078549D01*
X121506979Y-127175758D01*
X121517767Y-127272872D01*
X121533010Y-127369620D01*
X121552792Y-127465734D01*
X121577193Y-127560942D01*
X121606294Y-127654976D01*
X121640178Y-127747564D01*
X121678926Y-127838438D01*
X121722619Y-127927328D01*
X121754535Y-127985352D01*
X121563660Y-128067051D01*
G37*
G36*
X121070900Y-126885160D02*
G01*
X120959322Y-126879461D01*
X120850956Y-126862733D01*
X120746352Y-126835532D01*
X120646060Y-126798412D01*
X120550631Y-126751928D01*
X120460613Y-126696636D01*
X120376558Y-126633089D01*
X120299016Y-126561844D01*
X120228536Y-126483454D01*
X120165669Y-126398475D01*
X120110964Y-126307462D01*
X120064972Y-126210970D01*
X120028243Y-126109553D01*
X120001327Y-126003766D01*
X119984774Y-125894165D01*
X119979134Y-125781304D01*
X120063032Y-125781304D01*
X120068236Y-125885551D01*
X120083513Y-125986787D01*
X120108354Y-126084499D01*
X120142252Y-126178174D01*
X120184701Y-126267301D01*
X120235192Y-126351367D01*
X120293219Y-126429858D01*
X120358275Y-126502264D01*
X120429853Y-126568070D01*
X120507445Y-126626765D01*
X120590544Y-126677836D01*
X120678644Y-126720771D01*
X120771236Y-126755057D01*
X120867814Y-126780182D01*
X120967871Y-126795632D01*
X121070900Y-126800896D01*
X121070900Y-126885160D01*
G37*
G36*
X117920900Y-127196936D02*
G01*
X118003856Y-127199091D01*
X118084150Y-127205415D01*
X118161784Y-127215698D01*
X118236757Y-127229731D01*
X118309071Y-127247304D01*
X118412556Y-127279842D01*
X118510059Y-127319164D01*
X118601583Y-127364563D01*
X118687129Y-127415329D01*
X118766700Y-127470755D01*
X118840296Y-127530132D01*
X118907920Y-127592753D01*
X118929134Y-127614225D01*
X118840840Y-127818290D01*
X118775355Y-127759199D01*
X118706298Y-127703101D01*
X118633417Y-127650610D01*
X118556463Y-127602344D01*
X118475186Y-127558917D01*
X118389337Y-127520945D01*
X118298665Y-127489045D01*
X118202920Y-127463832D01*
X118101853Y-127445922D01*
X117995212Y-127435931D01*
X117920900Y-127433974D01*
X117846651Y-127435931D01*
X117740092Y-127445922D01*
X117639085Y-127463832D01*
X117543382Y-127489045D01*
X117452733Y-127520945D01*
X117366887Y-127558917D01*
X117285594Y-127602344D01*
X117208605Y-127650610D01*
X117135669Y-127703101D01*
X117066537Y-127759199D01*
X117000959Y-127818290D01*
X116913032Y-127614225D01*
X116978580Y-127550680D01*
X117050132Y-127490143D01*
X117127681Y-127433321D01*
X117211223Y-127380923D01*
X117300751Y-127333657D01*
X117396261Y-127292231D01*
X117497746Y-127257353D01*
X117568721Y-127238088D01*
X117642347Y-127222259D01*
X117718624Y-127210075D01*
X117797549Y-127201745D01*
X117879121Y-127197479D01*
X117920900Y-127196936D01*
G37*
G36*
X114294626Y-126965027D02*
G01*
X114294626Y-126713335D01*
X115218597Y-126713335D01*
X115218597Y-125780938D01*
X115470655Y-125780938D01*
X115470655Y-126713335D01*
X116394626Y-126713335D01*
X116394626Y-126965027D01*
X114294626Y-126965027D01*
G37*
G36*
X114294626Y-126965027D02*
G01*
X112194626Y-126965027D01*
X112194626Y-126713335D01*
X114294626Y-126713335D01*
X114294626Y-126965027D01*
G37*
G36*
X110094626Y-126965027D02*
G01*
X110094626Y-126713335D01*
X111018597Y-126713335D01*
X111018597Y-125780938D01*
X111270655Y-125780938D01*
X111270655Y-126713335D01*
X112194626Y-126713335D01*
X112194626Y-126965027D01*
X110094626Y-126965027D01*
G37*
D11*
X191524687Y-109182895D02*
X194381830Y-109182895D01*
X192953258Y-109182895D02*
X192953258Y-104182895D01*
X192953258Y-104182895D02*
X193429449Y-104897180D01*
X193429449Y-104897180D02*
X193905639Y-105373371D01*
X193905639Y-105373371D02*
X194381830Y-105611466D01*
X189619925Y-104659085D02*
X189381829Y-104420990D01*
X189381829Y-104420990D02*
X188905639Y-104182895D01*
X188905639Y-104182895D02*
X187715163Y-104182895D01*
X187715163Y-104182895D02*
X187238972Y-104420990D01*
X187238972Y-104420990D02*
X187000877Y-104659085D01*
X187000877Y-104659085D02*
X186762782Y-105135276D01*
X186762782Y-105135276D02*
X186762782Y-105611466D01*
X186762782Y-105611466D02*
X187000877Y-106325752D01*
X187000877Y-106325752D02*
X189858020Y-109182895D01*
X189858020Y-109182895D02*
X186762782Y-109182895D01*
X185096115Y-105849561D02*
X183905639Y-109182895D01*
X183905639Y-109182895D02*
X182715162Y-105849561D01*
X158750000Y-57000000D02*
X203750000Y-57000000D01*
X203750000Y-130000000D01*
X158750000Y-130000000D01*
X158750000Y-57000000D01*
M02*
