%TF.GenerationSoftware,KiCad,Pcbnew,8.0.2*%
%TF.CreationDate,2024-06-02T23:09:43-04:00*%
%TF.ProjectId,popperPump,706f7070-6572-4507-956d-702e6b696361,1.5*%
%TF.SameCoordinates,Original*%
%TF.FileFunction,Copper,L2,Bot*%
%TF.FilePolarity,Positive*%
%FSLAX46Y46*%
G04 Gerber Fmt 4.6, Leading zero omitted, Abs format (unit mm)*
G04 Created by KiCad (PCBNEW 8.0.2) date 2024-06-02 23:09:43*
%MOMM*%
%LPD*%
G01*
G04 APERTURE LIST*
G04 Aperture macros list*
%AMRoundRect*
0 Rectangle with rounded corners*
0 $1 Rounding radius*
0 $2 $3 $4 $5 $6 $7 $8 $9 X,Y pos of 4 corners*
0 Add a 4 corners polygon primitive as box body*
4,1,4,$2,$3,$4,$5,$6,$7,$8,$9,$2,$3,0*
0 Add four circle primitives for the rounded corners*
1,1,$1+$1,$2,$3*
1,1,$1+$1,$4,$5*
1,1,$1+$1,$6,$7*
1,1,$1+$1,$8,$9*
0 Add four rect primitives between the rounded corners*
20,1,$1+$1,$2,$3,$4,$5,0*
20,1,$1+$1,$4,$5,$6,$7,0*
20,1,$1+$1,$6,$7,$8,$9,0*
20,1,$1+$1,$8,$9,$2,$3,0*%
G04 Aperture macros list end*
%TA.AperFunction,ComponentPad*%
%ADD10R,3.500000X3.500000*%
%TD*%
%TA.AperFunction,ComponentPad*%
%ADD11RoundRect,0.750000X-1.000000X0.750000X-1.000000X-0.750000X1.000000X-0.750000X1.000000X0.750000X0*%
%TD*%
%TA.AperFunction,ComponentPad*%
%ADD12RoundRect,0.875000X-0.875000X0.875000X-0.875000X-0.875000X0.875000X-0.875000X0.875000X0.875000X0*%
%TD*%
%TA.AperFunction,ComponentPad*%
%ADD13C,1.600000*%
%TD*%
%TA.AperFunction,ComponentPad*%
%ADD14O,1.600000X1.600000*%
%TD*%
%TA.AperFunction,ComponentPad*%
%ADD15R,1.700000X1.700000*%
%TD*%
%TA.AperFunction,ComponentPad*%
%ADD16O,1.700000X1.700000*%
%TD*%
%TA.AperFunction,ComponentPad*%
%ADD17R,3.000000X3.000000*%
%TD*%
%TA.AperFunction,ComponentPad*%
%ADD18O,3.000000X3.000000*%
%TD*%
%TA.AperFunction,ViaPad*%
%ADD19C,0.600000*%
%TD*%
%TA.AperFunction,Conductor*%
%ADD20C,0.300000*%
%TD*%
%TA.AperFunction,Conductor*%
%ADD21C,1.000000*%
%TD*%
%TA.AperFunction,Conductor*%
%ADD22C,0.200000*%
%TD*%
G04 APERTURE END LIST*
D10*
%TO.P,12VIN,1*%
%TO.N,VCC*%
X165707500Y-71000000D03*
D11*
%TO.P,12VIN,2*%
%TO.N,GND*%
X165707500Y-65000000D03*
D12*
%TO.P,12VIN,3*%
%TO.N,N/C*%
X161007500Y-68000000D03*
%TD*%
D13*
%TO.P,ButDPullDown1,1*%
%TO.N,Net-(AdafruitRF315MhzMomentary1-Pin_5)*%
X100752400Y-90015680D03*
D14*
%TO.P,ButDPullDown1,2*%
%TO.N,Net-(M5StackHeader1-Pin_1)*%
X113452400Y-90015680D03*
%TD*%
D13*
%TO.P,ButDNeutral1,1*%
%TO.N,Net-(M5StackHeader1-Pin_1)*%
X100727000Y-115949080D03*
D14*
%TO.P,ButDNeutral1,2*%
%TO.N,GND*%
X113427000Y-115949080D03*
%TD*%
D13*
%TO.P,ButBNeutral1,1*%
%TO.N,Net-(M5StackHeader1-Pin_9)*%
X100600000Y-108354480D03*
D14*
%TO.P,ButBNeutral1,2*%
%TO.N,GND*%
X113300000Y-108354480D03*
%TD*%
D13*
%TO.P,ButBPullDown1,1*%
%TO.N,Net-(AdafruitRF315MhzMomentary1-Pin_3)*%
X100600000Y-74699480D03*
D14*
%TO.P,ButBPullDown1,2*%
%TO.N,Net-(M5StackHeader1-Pin_9)*%
X113300000Y-74699480D03*
%TD*%
D15*
%TO.P,M5StackHeader1,1,Pin_1*%
%TO.N,Net-(M5StackHeader1-Pin_1)*%
X129750000Y-85000000D03*
D16*
%TO.P,M5StackHeader1,2,Pin_2*%
%TO.N,GND*%
X132290000Y-85000000D03*
%TO.P,M5StackHeader1,3,Pin_3*%
%TO.N,unconnected-(M5StackHeader1-Pin_3-Pad3)*%
X129750000Y-87540000D03*
%TO.P,M5StackHeader1,4,Pin_4*%
%TO.N,unconnected-(M5StackHeader1-Pin_4-Pad4)*%
X132290000Y-87540000D03*
%TO.P,M5StackHeader1,5,Pin_5*%
%TO.N,unconnected-(M5StackHeader1-Pin_5-Pad5)*%
X129750000Y-90080000D03*
%TO.P,M5StackHeader1,6,Pin_6*%
%TO.N,unconnected-(M5StackHeader1-Pin_6-Pad6)*%
X132290000Y-90080000D03*
%TO.P,M5StackHeader1,7,Pin_7*%
%TO.N,unconnected-(M5StackHeader1-Pin_7-Pad7)*%
X129750000Y-92620000D03*
%TO.P,M5StackHeader1,8,Pin_8*%
%TO.N,unconnected-(M5StackHeader1-Pin_8-Pad8)*%
X132290000Y-92620000D03*
%TO.P,M5StackHeader1,9,Pin_9*%
%TO.N,Net-(M5StackHeader1-Pin_9)*%
X129750000Y-95160000D03*
%TO.P,M5StackHeader1,10,Pin_10*%
%TO.N,unconnected-(M5StackHeader1-Pin_10-Pad10)*%
X132290000Y-95160000D03*
%TO.P,M5StackHeader1,11,Pin_11*%
%TO.N,Net-(M5StackHeader1-Pin_11)*%
X129750000Y-97700000D03*
%TO.P,M5StackHeader1,12,Pin_12*%
%TO.N,unconnected-(M5StackHeader1-Pin_12-Pad12)*%
X132290000Y-97700000D03*
%TO.P,M5StackHeader1,13,Pin_13*%
%TO.N,unconnected-(M5StackHeader1-Pin_13-Pad13)*%
X129750000Y-100240000D03*
%TO.P,M5StackHeader1,14,Pin_14*%
%TO.N,unconnected-(M5StackHeader1-Pin_14-Pad14)*%
X132290000Y-100240000D03*
%TO.P,M5StackHeader1,15,Pin_15*%
%TO.N,unconnected-(M5StackHeader1-Pin_15-Pad15)*%
X129750000Y-102780000D03*
%TO.P,M5StackHeader1,16,Pin_16*%
%TO.N,unconnected-(M5StackHeader1-Pin_16-Pad16)*%
X132290000Y-102780000D03*
%TO.P,M5StackHeader1,17,Pin_17*%
%TO.N,unconnected-(M5StackHeader1-Pin_17-Pad17)*%
X129750000Y-105320000D03*
%TO.P,M5StackHeader1,18,Pin_18*%
%TO.N,unconnected-(M5StackHeader1-Pin_18-Pad18)*%
X132290000Y-105320000D03*
%TO.P,M5StackHeader1,19,Pin_19*%
%TO.N,unconnected-(M5StackHeader1-Pin_19-Pad19)*%
X129750000Y-107860000D03*
%TO.P,M5StackHeader1,20,Pin_20*%
%TO.N,unconnected-(M5StackHeader1-Pin_20-Pad20)*%
X132290000Y-107860000D03*
%TO.P,M5StackHeader1,21,Pin_21*%
%TO.N,Net-(DRV8871-Pin_4)*%
X129750000Y-110400000D03*
%TO.P,M5StackHeader1,22,Pin_22*%
%TO.N,Net-(DRV8871-Pin_3)*%
X132290000Y-110400000D03*
%TO.P,M5StackHeader1,23,Pin_23*%
%TO.N,unconnected-(M5StackHeader1-Pin_23-Pad23)*%
X129750000Y-112940000D03*
%TO.P,M5StackHeader1,24,Pin_24*%
%TO.N,unconnected-(M5StackHeader1-Pin_24-Pad24)*%
X132290000Y-112940000D03*
%TO.P,M5StackHeader1,25,Pin_25*%
%TO.N,unconnected-(M5StackHeader1-Pin_25-Pad25)*%
X129750000Y-115480000D03*
%TO.P,M5StackHeader1,26,Pin_26*%
%TO.N,unconnected-(M5StackHeader1-Pin_26-Pad26)*%
X132290000Y-115480000D03*
%TO.P,M5StackHeader1,27,Pin_27*%
%TO.N,VCC*%
X129750000Y-118020000D03*
%TO.P,M5StackHeader1,28,Pin_28*%
%TO.N,unconnected-(M5StackHeader1-Pin_28-Pad28)*%
X132290000Y-118020000D03*
%TO.P,M5StackHeader1,29,Pin_29*%
%TO.N,unconnected-(M5StackHeader1-Pin_29-Pad29)*%
X129750000Y-120560000D03*
%TO.P,M5StackHeader1,30,Pin_30*%
%TO.N,unconnected-(M5StackHeader1-Pin_30-Pad30)*%
X132290000Y-120560000D03*
%TD*%
D15*
%TO.P,5v Output,1,Pin_1*%
%TO.N,GND*%
X152750000Y-99000000D03*
D16*
%TO.P,5v Output,2,Pin_2*%
%TO.N,VCC*%
X152750000Y-84000000D03*
%TD*%
D15*
%TO.P,DRV8871,1,Pin_1*%
%TO.N,unconnected-(DRV8871-Pin_1-Pad1)*%
X153750000Y-117080000D03*
D16*
%TO.P,DRV8871,2,Pin_2*%
%TO.N,unconnected-(DRV8871-Pin_2-Pad2)*%
X153750000Y-114540000D03*
%TO.P,DRV8871,3,Pin_3*%
%TO.N,Net-(DRV8871-Pin_3)*%
X153750000Y-112000000D03*
%TO.P,DRV8871,4,Pin_4*%
%TO.N,Net-(DRV8871-Pin_4)*%
X153750000Y-109460000D03*
%TD*%
D17*
%TO.P,PowerSwitch,1,A*%
%TO.N,VCC*%
X198750000Y-74270000D03*
D18*
%TO.P,PowerSwitch,2,B*%
X198750000Y-79000000D03*
%TD*%
D13*
%TO.P,ButCNeutral1,1*%
%TO.N,Net-(M5StackHeader1-Pin_11)*%
X100600000Y-101090080D03*
D14*
%TO.P,ButCNeutral1,2*%
%TO.N,GND*%
X113300000Y-101090080D03*
%TD*%
D15*
%TO.P,AdafruitRF,1,Pin_1*%
%TO.N,unconnected-(AdafruitRF315MhzMomentary1-Pin_1-Pad1)*%
X123125000Y-72000000D03*
D16*
%TO.P,AdafruitRF,2,Pin_2*%
%TO.N,unconnected-(AdafruitRF315MhzMomentary1-Pin_2-Pad2)*%
X125665000Y-72000000D03*
%TO.P,AdafruitRF,3,Pin_3*%
%TO.N,Net-(AdafruitRF315MhzMomentary1-Pin_3)*%
X128205000Y-72000000D03*
%TO.P,AdafruitRF,4,Pin_4*%
%TO.N,Net-(AdafruitRF315MhzMomentary1-Pin_4)*%
X130745000Y-72000000D03*
%TO.P,AdafruitRF,5,Pin_5*%
%TO.N,Net-(AdafruitRF315MhzMomentary1-Pin_5)*%
X133285000Y-72000000D03*
%TO.P,AdafruitRF,6,Pin_6*%
%TO.N,VCC*%
X135825000Y-72000000D03*
%TO.P,AdafruitRF,7,Pin_7*%
%TO.N,GND*%
X138365000Y-72000000D03*
%TD*%
D13*
%TO.P,ButCPullDown1,1*%
%TO.N,Net-(AdafruitRF315MhzMomentary1-Pin_4)*%
X100600000Y-82699480D03*
D14*
%TO.P,ButCPullDown1,2*%
%TO.N,Net-(M5StackHeader1-Pin_11)*%
X113300000Y-82699480D03*
%TD*%
D17*
%TO.P,DRV1,1,Pin_1*%
%TO.N,GND*%
X198750000Y-93460000D03*
D18*
%TO.P,DRV1,2,Pin_2*%
%TO.N,Net-(BuckConverter1-Pin_2)*%
X198750000Y-98190000D03*
%TD*%
D17*
%TO.P,12v Input,1,Pin_1*%
%TO.N,GND*%
X177750000Y-99000000D03*
D18*
%TO.P,12v Input,2,Pin_2*%
%TO.N,VCC*%
X177750000Y-84000000D03*
%TD*%
D19*
%TO.N,Net-(DRV8871-Pin_3)*%
X139800000Y-113000000D03*
%TD*%
D20*
%TO.N,Net-(AdafruitRF315MhzMomentary1-Pin_5)*%
X100752400Y-86247600D02*
X101300000Y-85700000D01*
X100752400Y-90015680D02*
X100752400Y-86247600D01*
X124198080Y-78000000D02*
X130200000Y-78000000D01*
X133285000Y-74915000D02*
X133285000Y-72000000D01*
X101300000Y-85700000D02*
X116498080Y-85700000D01*
X116498080Y-85700000D02*
X124198080Y-78000000D01*
X130200000Y-78000000D02*
X133285000Y-74915000D01*
%TO.N,Net-(AdafruitRF315MhzMomentary1-Pin_3)*%
X118710200Y-74216880D02*
X127383120Y-74216880D01*
X100600000Y-74699480D02*
X100600000Y-77100000D01*
X127383120Y-74216880D02*
X128205000Y-73395000D01*
X101199480Y-77699480D02*
X115227600Y-77699480D01*
X128205000Y-73395000D02*
X128205000Y-72000000D01*
X115227600Y-77699480D02*
X118710200Y-74216880D01*
X100600000Y-77100000D02*
X101199480Y-77699480D01*
%TO.N,Net-(AdafruitRF315MhzMomentary1-Pin_4)*%
X119374880Y-75000000D02*
X115941600Y-78433280D01*
X130745000Y-73855000D02*
X129600000Y-75000000D01*
X115941600Y-78433280D02*
X100866720Y-78433280D01*
X130745000Y-72000000D02*
X130745000Y-73855000D01*
X129600000Y-75000000D02*
X119374880Y-75000000D01*
X100866720Y-78433280D02*
X100600000Y-78700000D01*
X100600000Y-78700000D02*
X100600000Y-82699480D01*
%TO.N,GND*%
X132290000Y-85000000D02*
X136300000Y-85000000D01*
X138400000Y-84900000D02*
X138400000Y-72035000D01*
D21*
X198750000Y-87150000D02*
X198750000Y-93460000D01*
D20*
X137300000Y-86000000D02*
X138400000Y-84900000D01*
D21*
X177750000Y-99000000D02*
X186200000Y-99000000D01*
D20*
X136300000Y-85000000D02*
X137300000Y-86000000D01*
X143750000Y-98000000D02*
X143750000Y-125000000D01*
D21*
X176600000Y-65000000D02*
X198750000Y-87150000D01*
D20*
X125900000Y-125000000D02*
X116849080Y-115949080D01*
X150300000Y-99000000D02*
X137300000Y-86000000D01*
D21*
X186200000Y-99000000D02*
X191740000Y-93460000D01*
D20*
X146525000Y-95225000D02*
X143750000Y-98000000D01*
D22*
X113300000Y-115822080D02*
X113427000Y-115949080D01*
X152750000Y-99000000D02*
X152750000Y-98450000D01*
D20*
X150300000Y-99000000D02*
X152750000Y-99000000D01*
X113300000Y-108354480D02*
X113300000Y-115822080D01*
X143750000Y-125000000D02*
X125900000Y-125000000D01*
X138400000Y-72035000D02*
X138365000Y-72000000D01*
D21*
X191740000Y-93460000D02*
X198750000Y-93460000D01*
D20*
X113300000Y-101090080D02*
X113300000Y-108354480D01*
X116849080Y-115949080D02*
X113427000Y-115949080D01*
D21*
X165707500Y-65000000D02*
X176600000Y-65000000D01*
D20*
%TO.N,Net-(M5StackHeader1-Pin_1)*%
X98300000Y-95600000D02*
X98300000Y-115300000D01*
X99000000Y-94900000D02*
X98300000Y-95600000D01*
X126600000Y-85000000D02*
X129750000Y-85000000D01*
X113452400Y-94054280D02*
X112606680Y-94900000D01*
X98300000Y-115300000D02*
X98949080Y-115949080D01*
X121584320Y-90015680D02*
X126600000Y-85000000D01*
X113452400Y-90015680D02*
X113452400Y-94054280D01*
X113452400Y-90015680D02*
X121584320Y-90015680D01*
X112606680Y-94900000D02*
X99000000Y-94900000D01*
X98949080Y-115949080D02*
X100727000Y-115949080D01*
%TO.N,Net-(DRV8871-Pin_3)*%
X134800000Y-110400000D02*
X137400000Y-113000000D01*
X132290000Y-110400000D02*
X134800000Y-110400000D01*
X137400000Y-113000000D02*
X139800000Y-113000000D01*
%TD*%
M02*
