%TF.GenerationSoftware,KiCad,Pcbnew,8.0.2*%
%TF.CreationDate,2024-06-02T23:09:43-04:00*%
%TF.ProjectId,popperPump,706f7070-6572-4507-956d-702e6b696361,1.5*%
%TF.SameCoordinates,Original*%
%TF.FileFunction,Soldermask,Top*%
%TF.FilePolarity,Negative*%
%FSLAX46Y46*%
G04 Gerber Fmt 4.6, Leading zero omitted, Abs format (unit mm)*
G04 Created by KiCad (PCBNEW 8.0.2) date 2024-06-02 23:09:43*
%MOMM*%
%LPD*%
G01*
G04 APERTURE LIST*
G04 Aperture macros list*
%AMRoundRect*
0 Rectangle with rounded corners*
0 $1 Rounding radius*
0 $2 $3 $4 $5 $6 $7 $8 $9 X,Y pos of 4 corners*
0 Add a 4 corners polygon primitive as box body*
4,1,4,$2,$3,$4,$5,$6,$7,$8,$9,$2,$3,0*
0 Add four circle primitives for the rounded corners*
1,1,$1+$1,$2,$3*
1,1,$1+$1,$4,$5*
1,1,$1+$1,$6,$7*
1,1,$1+$1,$8,$9*
0 Add four rect primitives between the rounded corners*
20,1,$1+$1,$2,$3,$4,$5,0*
20,1,$1+$1,$4,$5,$6,$7,0*
20,1,$1+$1,$6,$7,$8,$9,0*
20,1,$1+$1,$8,$9,$2,$3,0*%
G04 Aperture macros list end*
%ADD10R,3.500000X3.500000*%
%ADD11RoundRect,0.750000X-1.000000X0.750000X-1.000000X-0.750000X1.000000X-0.750000X1.000000X0.750000X0*%
%ADD12RoundRect,0.875000X-0.875000X0.875000X-0.875000X-0.875000X0.875000X-0.875000X0.875000X0.875000X0*%
%ADD13C,1.600000*%
%ADD14O,1.600000X1.600000*%
%ADD15R,1.700000X1.700000*%
%ADD16O,1.700000X1.700000*%
%ADD17R,3.000000X3.000000*%
%ADD18O,3.000000X3.000000*%
G04 APERTURE END LIST*
D10*
%TO.C,12VIN*%
X165707500Y-71000000D03*
D11*
X165707500Y-65000000D03*
D12*
X161007500Y-68000000D03*
%TD*%
D13*
%TO.C,ButDPullDown1*%
X100752400Y-90015680D03*
D14*
X113452400Y-90015680D03*
%TD*%
D13*
%TO.C,ButDNeutral1*%
X100727000Y-115949080D03*
D14*
X113427000Y-115949080D03*
%TD*%
D13*
%TO.C,ButBNeutral1*%
X100600000Y-108354480D03*
D14*
X113300000Y-108354480D03*
%TD*%
D13*
%TO.C,ButBPullDown1*%
X100600000Y-74699480D03*
D14*
X113300000Y-74699480D03*
%TD*%
D15*
%TO.C,M5StackHeader1*%
X129750000Y-85000000D03*
D16*
X132290000Y-85000000D03*
X129750000Y-87540000D03*
X132290000Y-87540000D03*
X129750000Y-90080000D03*
X132290000Y-90080000D03*
X129750000Y-92620000D03*
X132290000Y-92620000D03*
X129750000Y-95160000D03*
X132290000Y-95160000D03*
X129750000Y-97700000D03*
X132290000Y-97700000D03*
X129750000Y-100240000D03*
X132290000Y-100240000D03*
X129750000Y-102780000D03*
X132290000Y-102780000D03*
X129750000Y-105320000D03*
X132290000Y-105320000D03*
X129750000Y-107860000D03*
X132290000Y-107860000D03*
X129750000Y-110400000D03*
X132290000Y-110400000D03*
X129750000Y-112940000D03*
X132290000Y-112940000D03*
X129750000Y-115480000D03*
X132290000Y-115480000D03*
X129750000Y-118020000D03*
X132290000Y-118020000D03*
X129750000Y-120560000D03*
X132290000Y-120560000D03*
%TD*%
D15*
%TO.C,5v Output*%
X152750000Y-99000000D03*
D16*
X152750000Y-84000000D03*
%TD*%
D15*
%TO.C,DRV8871*%
X153750000Y-117080000D03*
D16*
X153750000Y-114540000D03*
X153750000Y-112000000D03*
X153750000Y-109460000D03*
%TD*%
D17*
%TO.C,PowerSwitch*%
X198750000Y-74270000D03*
D18*
X198750000Y-79000000D03*
%TD*%
D13*
%TO.C,ButCNeutral1*%
X100600000Y-101090080D03*
D14*
X113300000Y-101090080D03*
%TD*%
D15*
%TO.C,AdafruitRF*%
X123125000Y-72000000D03*
D16*
X125665000Y-72000000D03*
X128205000Y-72000000D03*
X130745000Y-72000000D03*
X133285000Y-72000000D03*
X135825000Y-72000000D03*
X138365000Y-72000000D03*
%TD*%
D13*
%TO.C,ButCPullDown1*%
X100600000Y-82699480D03*
D14*
X113300000Y-82699480D03*
%TD*%
D17*
%TO.C,DRV1*%
X198750000Y-93460000D03*
D18*
X198750000Y-98190000D03*
%TD*%
D17*
%TO.C,12v Input*%
X177750000Y-99000000D03*
D18*
X177750000Y-84000000D03*
%TD*%
M02*
